<?xml version="1.0" encoding="utf-8"?>
<!-- Generator: Adobe Illustrator 26.0.0, SVG Export Plug-In . SVG Version: 6.00 Build 0)  -->
<svg version="1.1" xmlns="http://www.w3.org/2000/svg" xmlns:xlink="http://www.w3.org/1999/xlink" x="0px" y="0px"
	 viewBox="0 0 500 500" style="enable-background:new 0 0 500 500;" xml:space="preserve">
<style type="text/css">
	.st0{fill:#DC2626;}
	.st1{opacity:0.8;fill:#FFFFFF;}
	.st2{fill:#FFFFFF;stroke:#DC2626;stroke-width:6;stroke-linecap:round;stroke-linejoin:round;stroke-miterlimit:10;}
	.st3{fill:#263238;}
	.st4{fill:none;stroke:#DC2626;stroke-width:6;stroke-linecap:round;stroke-linejoin:round;stroke-miterlimit:10;}
	.st5{fill:#DC2626;stroke:#263238;stroke-linecap:round;stroke-linejoin:round;stroke-miterlimit:10;}
	.st6{fill:none;stroke:#263238;stroke-linecap:round;stroke-linejoin:round;stroke-miterlimit:10;}
	.st7{fill:#FFFFFF;stroke:#263238;stroke-linecap:round;stroke-linejoin:round;stroke-miterlimit:10;}
	.st8{fill:#263238;stroke:#263238;stroke-linecap:round;stroke-linejoin:round;stroke-miterlimit:10;}
	.st9{fill:none;stroke:#263238;stroke-width:12;stroke-linecap:round;stroke-linejoin:round;stroke-miterlimit:10;}
	.st10{fill:#CCCCCC;stroke:#263238;stroke-linecap:round;stroke-linejoin:round;stroke-miterlimit:10;}
</style>
<g id="Background_Simple">
	<g>
		<path class="st0" d="M39,242.6c1.3,3.1,2.6,6.3,3.8,9.4c13.2,34,76.5,190.8,130.3,216.2c60.4,28.5,297.5-74.3,303.5-147.7
			c5.9-73.3-80.8-265.3-130.1-276.7C297.2,32.5,82.7,125.7,49.3,161.3C20.7,191.8,34.4,231.7,39,242.6z"/>
		<path class="st1" d="M39,242.6c1.3,3.1,2.6,6.3,3.8,9.4c13.2,34,76.5,190.8,130.3,216.2c60.4,28.5,297.5-74.3,303.5-147.7
			c5.9-73.3-80.8-265.3-130.1-276.7C297.2,32.5,82.7,125.7,49.3,161.3C20.7,191.8,34.4,231.7,39,242.6z"/>
	</g>
</g>
<g id="Icon">
	<g>
		<ellipse transform="matrix(0.7071 -0.7071 0.7071 0.7071 56.1175 283.8959)" class="st2" cx="370.8" cy="74.2" rx="37" ry="37"/>
		<g>
			<path class="st3" d="M370.8,60c-5.5,0-10.9,1.4-15.8,4.3c-2,1.2-3.8,2.7-5.6,4.2c-1.1,0.8-2.2,1.2-3.5,0.8c-2-0.6-2.9-3-1.8-4.7
				c0.4-0.6,0.9-1.1,1.4-1.6c6.1-5.4,13.2-8.7,21.4-9.5c11.2-1.1,20.9,2.3,29.3,9.6c0.8,0.7,1.6,1.5,1.7,2.8
				c0.1,1.4-0.4,2.5-1.6,3.2c-1.2,0.7-2.4,0.6-3.6-0.2c-0.7-0.5-1.2-1-1.9-1.5c-5.6-4.6-12-7-19.2-7.3C371.4,60,371.2,60,370.8,60z"
				/>
			<path class="st3" d="M387.3,77.8c-1,0-1.8-0.4-2.6-1.1c-2.9-2.7-6.3-4.6-10.3-5.3c-6.1-1-11.7,0.3-16.5,4.3
				c-0.6,0.5-1.1,1-1.7,1.4c-1.4,1-3.3,0.8-4.4-0.5c-1.1-1.3-1.1-3.1,0.1-4.4c2.7-2.8,5.9-4.8,9.5-6.1c7-2.6,13.9-2.3,20.7,0.9
				c2.8,1.3,5.2,3,7.4,5.2c1,1,1.3,2.4,0.7,3.7C389.7,77.2,388.7,77.8,387.3,77.8z"/>
			<path class="st3" d="M370.7,75.6c4.5,0.1,8.4,1.7,11.5,5c1.2,1.3,1.3,3.3,0.1,4.5c-1.2,1.3-3.2,1.4-4.6,0.3
				c-1.2-0.9-2.3-1.9-3.7-2.5c-3.5-1.4-6.7-0.6-9.4,1.9c-1,0.9-2,1.6-3.4,1.3c-2.4-0.4-3.6-3.3-2-5.2c1.5-1.9,3.4-3.2,5.6-4.1
				C366.6,76,368.6,75.6,370.7,75.6z"/>
			<path class="st3" d="M370.8,95.1c-2.3,0-4-1.7-4-4c0-2.1,1.8-4,3.9-4c2.3,0,4.1,1.8,4,4.1C374.7,93.3,373,95.1,370.8,95.1z"/>
		</g>
		<line class="st4" x1="339.7" y1="93" x2="399.7" y2="52"/>
	</g>
</g>
<g id="Plants">
	<g>
		<path class="st0" d="M106.4,377.9c3.4,1.2,11.6,0.5,11.6,0.5c0.1,0-2.1-5.2-2.3-5.6c-2-3.6-8.1-9.5-12.7-8.6
			c-3.3,0.7-4.9,4.1-4,7.2C100,374.6,103.5,376.8,106.4,377.9z"/>
		<path class="st0" d="M110.7,401.4c3.5,0.3,10.7-2.3,11.2-2.5c1.4,4,3.2,8,5.2,12c1.2,2.3,2.4,4.5,3.7,6.7
			c-0.7-0.9-1.4-1.8-1.5-1.9c-2.9-3-10.3-7-14.5-4.9c-3,1.5-3.7,5.3-1.9,8c1.8,2.8,5.7,4,8.8,4.2c3.2,0.3,9.3-1.8,10.9-2.4
			c0.5,0.9,1,1.7,1.5,2.6c2.4,4.1,4.8,8.1,7,12.2c0.8,1.4,1.5,2.9,2.2,4.3c-0.6-0.8-1.2-1.5-1.3-1.6c-2.9-3-10.3-7-14.5-4.9
			c-3,1.5-3.7,5.3-1.9,8c1.8,2.8,5.7,4,8.8,4.2c3,0.2,8.7-1.6,10.6-2.3c0.7,1.5,1.4,3,2,4.5c0.4,1,0.8,2,1.2,3c0.4,1,0.7,2,1.1,3
			c0.6,2,1.2,4,1.8,5.9c0.4,1.3,0.7,2.6,1.1,3.9c-0.8-1.4-2.3-4.2-2.5-4.4c-2.4-3.4-9.2-8.5-13.6-7c-3.2,1-4.4,4.7-3.1,7.6
			c1.3,3,5,4.8,8,5.5c3.3,0.8,10.5-0.6,11.4-0.8c0.6,2.1,1.1,4.2,1.6,6.2c0.2,0.7,0.4,1.5,0.5,2.2h2.9c-0.2-0.9-0.5-1.9-0.7-2.9
			c-0.6-2.2-1.2-4.5-1.9-6.9c0.5-0.3,3.5-1.7,6.2-3.4c2.6,2.4,8.9,5.1,9.7,5.4c-0.7,2.1-1.4,4.1-2.1,6c-0.2,0.6-0.4,1.1-0.6,1.7h3
			c0.1-0.3,0.2-0.5,0.3-0.8c0.7-2.1,1.5-4.4,2.2-6.8c0.9,0.1,8.2,1.1,11.5,0.2c3-0.9,6.6-2.8,7.7-5.9c1.1-3-0.3-6.6-3.5-7.4
			c-4.5-1.2-10.9,4.3-13.2,7.8c-0.1,0.2-1.3,2.6-2.1,4.1c0.3-1,0.6-1.9,0.9-2.9c0.6-2,1.1-4,1.7-6.1c0.2-1,0.5-2.1,0.7-3.1
			c0.3-1,0.4-2.2,0.6-3.3c0.4-2.6,0.8-5.2,1-7.8c1.7,0.5,7.9,2.2,11,1.8c3.1-0.4,6.9-1.8,8.5-4.7c1.6-2.8,0.7-6.5-2.4-7.9
			c-4.3-1.9-11.5,2.5-14.2,5.7c-0.2,0.2-1.9,2.7-2.8,4c0.1-1.6,0.3-3.2,0.4-4.8c0.3-4.7,0.4-9.4,0.6-14.1c0-1.4,0.1-2.9,0.2-4.3
			c0.6,0.2,7.9,2.4,11.4,1.9c3.1-0.4,6.9-1.8,8.5-4.7c1.6-2.8,0.7-6.5-2.4-7.9c-4.3-1.9-11.5,2.5-14.2,5.7c-0.2,0.2-2.7,3.8-3.3,4.7
			c0.1-3.2,0.3-6.3,0.6-9.4c0.4-4.3,1-8.5,1.9-12.5c0.3,0.1,7.9,2.4,11.4,1.9c3.1-0.4,6.9-1.8,8.5-4.7c1.6-2.8,0.7-6.5-2.4-7.9
			c-4.3-1.9-11.5,2.5-14.2,5.7c-0.2,0.2-2.9,4.1-3.3,4.8c0.1-0.2,0.1-0.5,0.1-0.7c1-4.3,2.5-8.3,4.1-12c0.9-2.1,1.9-4.1,3-6.1
			c1.4,0.6,7.6,3.1,10.9,3.1c3.1-0.1,7.1-1,9-3.7c1.9-2.6,1.4-6.4-1.5-8.1c-4.1-2.3-11.7,1.3-14.8,4.1c-0.2,0.2-1.7,1.9-2.8,3.2
			c0.5-0.9,0.9-1.8,1.4-2.6c1.8-3.1,3.6-5.8,5.2-8.1c0.9-1.3,1.8-2.5,2.6-3.7c1.6-0.1,8.2-0.8,11-2.3c2.7-1.5,5.8-4.2,6.3-7.4
			c0.5-3.2-1.7-6.4-5.1-6.5c-4.7-0.2-9.8,6.5-11.2,10.4c-0.1,0.3-1.5,5.9-1.4,5.8c0,0,0.1,0,0.1,0c-0.8,1.1-1.7,2.2-2.6,3.5
			c-1.7,2.3-3.5,5-5.4,8c-1.8,3-3.8,6.4-5.5,10.1c-1.7,3.7-3.3,7.7-4.4,12c0,0,0,0.1,0,0.2c-0.1-1.4-0.4-5.2-0.4-5.5
			c-0.8-4.1-4.8-11.5-9.4-12.1c-3.3-0.4-6,2.4-6,5.6c-0.1,3.3,2.5,6.4,5,8.4c2.8,2.2,10.2,4,10.8,4.1c-1,4.1-1.8,8.5-2.3,12.9
			c-0.3,2.5-0.5,5.1-0.7,7.6c-0.1-1.2-0.2-2.2-0.2-2.4c-0.8-4.1-4.8-11.5-9.4-12.1c-3.3-0.4-6,2.4-6,5.6c-0.1,3.3,2.5,6.4,5,8.4
			c2.5,2,8.8,3.6,10.4,4c-0.1,1-0.1,2-0.2,2.9c-0.3,4.7-0.5,9.4-0.9,14c-0.1,1.6-0.3,3.2-0.5,4.8c-0.1-1-0.2-1.9-0.2-2.1
			c-0.8-4.1-4.8-11.5-9.4-12.1c-3.3-0.4-6,2.4-6,5.6c-0.1,3.3,2.5,6.4,5,8.4c2.4,1.9,8.2,3.4,10.1,4c-0.2,1.6-0.5,3.3-0.8,4.8
			c-0.2,1.1-0.4,2.1-0.7,3.2c-0.3,1.1-0.5,2.1-0.8,3.1c-0.6,2-1.2,4-1.8,5.9c-0.4,1.3-0.8,2.6-1.3,3.9c0.1-1.6,0.4-4.8,0.4-5.1
			c-0.1-2.8-1.4-7.2-3.5-10.2c0-0.4-0.1-0.8-0.2-1.2c-0.7-3.2-3.9-5.3-7.1-4.3c-4.4,1.5-6.8,9.6-6.7,13.8c0,0.2,0.3,2.9,0.6,4.6
			c-0.3-1-0.6-1.9-0.9-2.9c-0.6-2-1.3-3.9-2-6c-0.4-1-0.8-2-1.1-3c-0.4-1-0.9-2-1.3-3.1c-1-2.4-2.2-4.7-3.5-7.1
			c1.7-0.5,7.8-2.5,10.2-4.6c2.3-2.1,4.8-5.3,4.5-8.6c-0.2-3.2-3-5.8-6.3-5.3c-4.6,0.8-8.2,8.4-8.7,12.6c0,0.3-0.1,3.3-0.1,4.9
			c-0.8-1.4-1.5-2.8-2.3-4.2c-2.3-4-4.8-8.1-7.3-12.1c-0.8-1.2-1.5-2.5-2.2-3.7c0.6-0.2,7.9-2.4,10.5-4.7c2.3-2.1,4.8-5.3,4.5-8.6
			c-0.2-3.2-3-5.8-6.3-5.3c-4.6,0.8-8.2,8.4-8.7,12.6c0,0.3-0.2,4.6-0.1,5.8c-1.6-2.7-3.3-5.4-4.7-8.2c-2-3.8-3.8-7.6-5.3-11.5
			c0.3-0.1,7.9-2.3,10.6-4.7c2.3-2.1,4.8-5.3,4.5-8.6c-0.2-3.2-3-5.8-6.3-5.3c-4.6,0.8-8.2,8.4-8.7,12.6c0,0.3-0.2,5-0.1,5.8
			c-0.1-0.2-0.2-0.5-0.3-0.7c-1.5-4.1-2.5-8.3-3.2-12.3c-0.4-2.3-0.7-4.5-0.9-6.7c1.5-0.3,8.1-1.6,10.8-3.5c2.6-1.8,5.3-4.8,5.5-8.1
			c0.1-3.2-2.3-6.1-5.7-5.9c-4.7,0.3-9,7.5-10.1,11.5c-0.1,0.2-0.4,2.5-0.6,4.2c-0.1-1-0.2-2-0.2-2.9c-0.2-3.5-0.2-6.8-0.2-9.6
			c0-1.6,0.1-3.1,0.2-4.5c1.3-1,6.4-5.2,7.9-8c1.4-2.8,2.5-6.7,1.1-9.7c-1.4-2.9-4.9-4.4-7.8-2.6c-4,2.4-4.6,10.8-3.6,14.9
			c0.1,0.4,2,5.7,2.1,5.6c0,0,0.1,0,0.1-0.1c-0.1,1.3-0.2,2.8-0.3,4.3c-0.1,2.9-0.2,6.1,0,9.7c0.1,3.5,0.4,7.4,1,11.4
			c0.6,4,1.5,8.3,2.9,12.5c0,0,0,0.1,0.1,0.1c-0.8-1.1-3.2-4.1-3.4-4.3c-2.9-3-10.3-7-14.5-4.9c-3,1.5-3.7,5.3-1.9,8
			C103.7,400,107.6,401.1,110.7,401.4z"/>
		<path class="st0" d="M189.4,374.4c0.1,0,1.1-5.5,1.2-5.9c0.3-4.2-1.5-12.4-5.9-14.2c-3.1-1.3-6.4,0.7-7.3,3.8
			c-0.9,3.2,0.7,6.9,2.6,9.4C182.1,370.4,189.3,374.4,189.4,374.4z"/>
	</g>
	<g>
		<path class="st0" d="M37.3,419c1.9,0.7,6.6,0.3,6.6,0.3c0,0-1.2-3-1.3-3.1c-1.2-2.1-4.6-5.4-7.2-4.8c-1.9,0.4-2.8,2.3-2.3,4.1
			C33.7,417.2,35.6,418.4,37.3,419z"/>
		<path class="st0" d="M39.7,432.4c2,0.2,6-1.3,6.4-1.4c0.8,2.3,1.8,4.5,3,6.8c0.7,1.3,1.4,2.6,2.1,3.8c-0.4-0.5-0.8-1-0.8-1.1
			c-1.7-1.7-5.8-4-8.2-2.8c-1.7,0.9-2.1,3-1.1,4.5c1,1.6,3.2,2.2,5,2.4c1.8,0.1,5.3-1,6.2-1.4c0.3,0.5,0.6,1,0.8,1.4
			c1.4,2.3,2.7,4.6,4,6.9c0.4,0.8,0.9,1.6,1.3,2.4c-0.4-0.5-0.7-0.9-0.7-0.9c-1.7-1.7-5.8-4-8.2-2.8c-1.7,0.9-2.1,3-1.1,4.5
			c1,1.6,3.2,2.2,5,2.4c1.7,0.1,4.9-0.9,6-1.3c0.4,0.8,0.8,1.7,1.1,2.5c0.2,0.6,0.5,1.1,0.7,1.7c0.2,0.6,0.4,1.2,0.6,1.7
			c0.3,1.1,0.7,2.3,1,3.3c0.2,0.8,0.4,1.5,0.6,2.2c-0.4-0.8-1.3-2.4-1.4-2.5c-1.4-1.9-5.2-4.8-7.7-4c-1.8,0.6-2.5,2.6-1.8,4.3
			c0.8,1.7,2.8,2.7,4.5,3.1c1.9,0.4,6-0.3,6.5-0.4c0.3,1.2,0.6,2.4,0.9,3.5c0.1,0.4,0.2,0.8,0.3,1.2h1.6c-0.1-0.5-0.3-1.1-0.4-1.6
			c-0.3-1.2-0.7-2.5-1.1-3.9c0.3-0.1,2-1,3.5-1.9c1.4,1.4,5,2.9,5.5,3.1c-0.4,1.2-0.8,2.3-1.2,3.4c-0.1,0.3-0.2,0.6-0.3,0.9h1.7
			c0-0.1,0.1-0.3,0.1-0.4c0.4-1.2,0.8-2.5,1.2-3.8c0.5,0.1,4.6,0.6,6.5,0.1c1.7-0.5,3.7-1.6,4.4-3.4c0.6-1.7-0.2-3.7-2-4.2
			c-2.6-0.7-6.2,2.4-7.5,4.4c-0.1,0.1-0.8,1.5-1.2,2.3c0.2-0.5,0.3-1.1,0.5-1.6c0.3-1.1,0.6-2.2,0.9-3.4c0.1-0.6,0.3-1.2,0.4-1.8
			c0.1-0.6,0.2-1.2,0.4-1.9c0.2-1.5,0.4-2.9,0.6-4.4c1,0.3,4.5,1.3,6.2,1c1.7-0.2,3.9-1,4.8-2.6c0.9-1.6,0.4-3.7-1.3-4.5
			c-2.4-1.1-6.5,1.4-8.1,3.2c-0.1,0.1-1.1,1.5-1.6,2.3c0.1-0.9,0.2-1.8,0.2-2.7c0.2-2.6,0.2-5.3,0.3-8c0-0.8,0.1-1.6,0.1-2.4
			c0.3,0.1,4.5,1.3,6.4,1.1c1.7-0.2,3.9-1,4.8-2.6c0.9-1.6,0.4-3.7-1.3-4.5c-2.4-1.1-6.5,1.4-8.1,3.2c-0.1,0.1-1.5,2.1-1.9,2.7
			c0.1-1.8,0.2-3.6,0.3-5.3c0.2-2.4,0.6-4.8,1.1-7.1c0.2,0,4.4,1.4,6.5,1.1c1.7-0.2,3.9-1,4.8-2.6c0.9-1.6,0.4-3.7-1.3-4.5
			c-2.4-1.1-6.5,1.4-8.1,3.2c-0.1,0.1-1.6,2.3-1.9,2.7c0-0.1,0-0.3,0.1-0.4c0.6-2.4,1.4-4.7,2.3-6.8c0.5-1.2,1.1-2.3,1.7-3.4
			c0.8,0.3,4.3,1.8,6.2,1.7c1.8,0,4-0.6,5.1-2.1c1.1-1.5,0.8-3.6-0.8-4.6c-2.3-1.3-6.6,0.7-8.4,2.3c-0.1,0.1-1,1.1-1.6,1.8
			c0.3-0.5,0.5-1,0.8-1.5c1-1.7,2-3.3,2.9-4.6c0.5-0.8,1-1.4,1.5-2.1c0.9-0.1,4.7-0.4,6.2-1.3c1.5-0.9,3.3-2.4,3.5-4.2
			c0.3-1.8-1-3.6-2.9-3.7c-2.6-0.1-5.5,3.7-6.4,5.9c-0.1,0.2-0.8,3.3-0.8,3.3c0,0,0,0,0.1,0c-0.5,0.6-0.9,1.2-1.5,2
			c-0.9,1.3-2,2.8-3,4.6c-1,1.7-2.1,3.6-3.1,5.7c-1,2.1-1.9,4.4-2.5,6.8c0,0,0,0.1,0,0.1c0-0.8-0.2-2.9-0.2-3.1
			c-0.5-2.3-2.7-6.5-5.3-6.8c-1.9-0.2-3.4,1.3-3.4,3.2c0,1.9,1.4,3.6,2.8,4.7c1.6,1.2,5.8,2.2,6.1,2.3c-0.6,2.3-1,4.8-1.3,7.3
			c-0.2,1.4-0.3,2.9-0.4,4.3c-0.1-0.7-0.1-1.3-0.1-1.3c-0.5-2.3-2.7-6.5-5.3-6.8c-1.9-0.2-3.4,1.3-3.4,3.2c0,1.9,1.4,3.6,2.8,4.7
			c1.4,1.1,5,2,5.9,2.3c0,0.6-0.1,1.1-0.1,1.7c-0.1,2.7-0.3,5.3-0.5,7.9c-0.1,0.9-0.2,1.8-0.3,2.7c0-0.6-0.1-1.1-0.1-1.2
			c-0.5-2.3-2.7-6.5-5.3-6.8c-1.9-0.2-3.4,1.3-3.4,3.2c0,1.9,1.4,3.6,2.8,4.7c1.3,1.1,4.6,2,5.7,2.2c-0.1,0.9-0.3,1.8-0.4,2.7
			c-0.1,0.6-0.2,1.2-0.4,1.8c-0.2,0.6-0.3,1.2-0.4,1.8c-0.3,1.1-0.7,2.3-1,3.3c-0.2,0.8-0.5,1.5-0.7,2.2c0.1-0.9,0.2-2.7,0.2-2.9
			c-0.1-1.6-0.8-4.1-2-5.8c0-0.2,0-0.5-0.1-0.7c-0.4-1.8-2.2-3-4-2.4c-2.5,0.8-3.8,5.4-3.8,7.8c0,0.1,0.2,1.6,0.3,2.6
			c-0.2-0.5-0.3-1.1-0.5-1.6c-0.3-1.1-0.7-2.2-1.1-3.4c-0.2-0.6-0.4-1.1-0.6-1.7c-0.2-0.6-0.5-1.2-0.7-1.7c-0.6-1.3-1.3-2.7-2-4
			c1-0.3,4.4-1.4,5.7-2.6c1.3-1.2,2.7-3,2.6-4.9c-0.1-1.8-1.7-3.3-3.6-3c-2.6,0.5-4.6,4.8-4.9,7.1c0,0.1-0.1,1.9-0.1,2.8
			c-0.4-0.8-0.9-1.6-1.3-2.4c-1.3-2.3-2.7-4.6-4.1-6.8c-0.4-0.7-0.8-1.4-1.3-2.1c0.3-0.1,4.5-1.3,6-2.6c1.3-1.2,2.7-3,2.6-4.9
			c-0.1-1.8-1.7-3.3-3.6-3c-2.6,0.5-4.6,4.8-4.9,7.1c0,0.2-0.1,2.6-0.1,3.3c-0.9-1.5-1.8-3.1-2.7-4.6c-1.2-2.1-2.2-4.3-3-6.5
			c0.2,0,4.5-1.3,6-2.7c1.3-1.2,2.7-3,2.6-4.9c-0.1-1.8-1.7-3.3-3.6-3c-2.6,0.5-4.6,4.8-4.9,7.1c0,0.2-0.1,2.8-0.1,3.3
			c0-0.1-0.1-0.3-0.2-0.4c-0.9-2.3-1.4-4.7-1.8-6.9c-0.2-1.3-0.4-2.6-0.5-3.8c0.8-0.2,4.6-0.9,6.1-2c1.4-1,3-2.7,3.1-4.6
			c0.1-1.8-1.3-3.5-3.2-3.4c-2.6,0.2-5.1,4.2-5.7,6.5c0,0.1-0.2,1.4-0.3,2.4c0-0.6-0.1-1.1-0.1-1.7c-0.1-2-0.1-3.8-0.1-5.5
			c0-0.9,0.1-1.8,0.1-2.5c0.7-0.6,3.6-2.9,4.5-4.5c0.8-1.6,1.4-3.8,0.6-5.5c-0.8-1.7-2.8-2.5-4.4-1.5c-2.3,1.4-2.6,6.1-2,8.4
			c0,0.2,1.1,3.2,1.2,3.2c0,0,0,0,0,0c-0.1,0.8-0.1,1.6-0.1,2.4c-0.1,1.6-0.1,3.5,0,5.5c0.1,2,0.2,4.2,0.6,6.5
			c0.4,2.3,0.8,4.7,1.7,7.1c0,0,0,0.1,0,0.1c-0.5-0.6-1.8-2.3-1.9-2.5c-1.7-1.7-5.8-4-8.2-2.8c-1.7,0.9-2.1,3-1.1,4.5
			C35.8,431.5,38,432.2,39.7,432.4z"/>
		<path class="st0" d="M84.2,417.1c0,0,0.6-3.1,0.7-3.3c0.2-2.4-0.9-7-3.3-8c-1.8-0.7-3.6,0.4-4.1,2.2c-0.5,1.8,0.4,3.9,1.5,5.3
			C80.1,414.8,84.2,417.1,84.2,417.1z"/>
	</g>
	<g>
		<path class="st0" d="M408.3,419c1.9,0.7,6.6,0.3,6.6,0.3c0,0-1.2-3-1.3-3.1c-1.2-2.1-4.6-5.4-7.2-4.8c-1.9,0.4-2.8,2.3-2.3,4.1
			C404.7,417.2,406.7,418.4,408.3,419z"/>
		<path class="st0" d="M410.8,432.4c2,0.2,6-1.3,6.4-1.4c0.8,2.3,1.8,4.5,3,6.8c0.7,1.3,1.4,2.6,2.1,3.8c-0.4-0.5-0.8-1-0.8-1.1
			c-1.7-1.7-5.8-4-8.2-2.8c-1.7,0.9-2.1,3-1.1,4.5c1,1.6,3.2,2.2,5,2.4c1.8,0.1,5.3-1,6.2-1.4c0.3,0.5,0.6,1,0.8,1.4
			c1.4,2.3,2.7,4.6,4,6.9c0.4,0.8,0.9,1.6,1.3,2.4c-0.4-0.5-0.7-0.9-0.7-0.9c-1.7-1.7-5.8-4-8.2-2.8c-1.7,0.9-2.1,3-1.1,4.5
			c1,1.6,3.2,2.2,5,2.4c1.7,0.1,4.9-0.9,6-1.3c0.4,0.8,0.8,1.7,1.1,2.5c0.2,0.6,0.5,1.1,0.7,1.7c0.2,0.6,0.4,1.2,0.6,1.7
			c0.3,1.1,0.7,2.3,1,3.3c0.2,0.8,0.4,1.5,0.6,2.2c-0.4-0.8-1.3-2.4-1.4-2.5c-1.4-1.9-5.2-4.8-7.7-4c-1.8,0.6-2.5,2.6-1.8,4.3
			c0.8,1.7,2.8,2.7,4.5,3.1c1.9,0.4,6-0.3,6.5-0.4c0.3,1.2,0.6,2.4,0.9,3.5c0.1,0.4,0.2,0.8,0.3,1.2h1.6c-0.1-0.5-0.3-1.1-0.4-1.6
			c-0.3-1.2-0.7-2.5-1.1-3.9c0.3-0.1,2-1,3.5-1.9c1.4,1.4,5,2.9,5.5,3.1c-0.4,1.2-0.8,2.3-1.2,3.4c-0.1,0.3-0.2,0.6-0.3,0.9h1.7
			c0-0.1,0.1-0.3,0.1-0.4c0.4-1.2,0.8-2.5,1.2-3.8c0.5,0.1,4.6,0.6,6.5,0.1c1.7-0.5,3.7-1.6,4.4-3.4c0.6-1.7-0.2-3.7-2-4.2
			c-2.6-0.7-6.2,2.4-7.5,4.4c-0.1,0.1-0.8,1.5-1.2,2.3c0.2-0.5,0.3-1.1,0.5-1.6c0.3-1.1,0.6-2.2,0.9-3.4c0.1-0.6,0.3-1.2,0.4-1.8
			c0.1-0.6,0.2-1.2,0.4-1.9c0.2-1.5,0.4-2.9,0.6-4.4c1,0.3,4.5,1.3,6.2,1c1.7-0.2,3.9-1,4.8-2.6c0.9-1.6,0.4-3.7-1.3-4.5
			c-2.4-1.1-6.5,1.4-8.1,3.2c-0.1,0.1-1.1,1.5-1.6,2.3c0.1-0.9,0.2-1.8,0.2-2.7c0.2-2.6,0.2-5.3,0.3-8c0-0.8,0.1-1.6,0.1-2.4
			c0.3,0.1,4.5,1.3,6.4,1.1c1.7-0.2,3.9-1,4.8-2.6c0.9-1.6,0.4-3.7-1.3-4.5c-2.4-1.1-6.5,1.4-8.1,3.2c-0.1,0.1-1.5,2.1-1.9,2.7
			c0.1-1.8,0.2-3.6,0.3-5.3c0.2-2.4,0.6-4.8,1.1-7.1c0.2,0,4.4,1.4,6.5,1.1c1.7-0.2,3.9-1,4.8-2.6c0.9-1.6,0.4-3.7-1.3-4.5
			c-2.4-1.1-6.5,1.4-8.1,3.2c-0.1,0.1-1.6,2.3-1.9,2.7c0-0.1,0-0.3,0.1-0.4c0.6-2.4,1.4-4.7,2.3-6.8c0.5-1.2,1.1-2.3,1.7-3.4
			c0.8,0.3,4.3,1.8,6.2,1.7c1.8,0,4-0.6,5.1-2.1c1.1-1.5,0.8-3.6-0.8-4.6c-2.3-1.3-6.6,0.7-8.4,2.3c-0.1,0.1-1,1.1-1.6,1.8
			c0.3-0.5,0.5-1,0.8-1.5c1-1.7,2-3.3,2.9-4.6c0.5-0.8,1-1.4,1.5-2.1c0.9-0.1,4.7-0.4,6.2-1.3c1.5-0.9,3.3-2.4,3.5-4.2
			c0.3-1.8-1-3.6-2.9-3.7c-2.6-0.1-5.5,3.7-6.4,5.9c-0.1,0.2-0.8,3.3-0.8,3.3c0,0,0,0,0.1,0c-0.5,0.6-0.9,1.2-1.5,2
			c-0.9,1.3-2,2.8-3,4.6c-1,1.7-2.1,3.6-3.1,5.7c-1,2.1-1.9,4.4-2.5,6.8c0,0,0,0.1,0,0.1c0-0.8-0.2-2.9-0.2-3.1
			c-0.5-2.3-2.7-6.5-5.3-6.8c-1.9-0.2-3.4,1.3-3.4,3.2c0,1.9,1.4,3.6,2.8,4.7c1.6,1.2,5.8,2.2,6.1,2.3c-0.6,2.3-1,4.8-1.3,7.3
			c-0.2,1.4-0.3,2.9-0.4,4.3c-0.1-0.7-0.1-1.3-0.1-1.3c-0.5-2.3-2.7-6.5-5.3-6.8c-1.9-0.2-3.4,1.3-3.4,3.2c0,1.9,1.4,3.6,2.8,4.7
			c1.4,1.1,5,2,5.9,2.3c0,0.6-0.1,1.1-0.1,1.7c-0.1,2.7-0.3,5.3-0.5,7.9c-0.1,0.9-0.2,1.8-0.3,2.7c0-0.6-0.1-1.1-0.1-1.2
			c-0.5-2.3-2.7-6.5-5.3-6.8c-1.9-0.2-3.4,1.3-3.4,3.2c0,1.9,1.4,3.6,2.8,4.7c1.3,1.1,4.6,2,5.7,2.2c-0.1,0.9-0.3,1.8-0.4,2.7
			c-0.1,0.6-0.2,1.2-0.4,1.8c-0.2,0.6-0.3,1.2-0.4,1.8c-0.3,1.1-0.7,2.3-1,3.3c-0.2,0.8-0.5,1.5-0.7,2.2c0.1-0.9,0.2-2.7,0.2-2.9
			c-0.1-1.6-0.8-4.1-2-5.8c0-0.2,0-0.5-0.1-0.7c-0.4-1.8-2.2-3-4-2.4c-2.5,0.8-3.8,5.4-3.8,7.8c0,0.1,0.2,1.6,0.3,2.6
			c-0.2-0.5-0.3-1.1-0.5-1.6c-0.3-1.1-0.7-2.2-1.1-3.4c-0.2-0.6-0.4-1.1-0.6-1.7c-0.2-0.6-0.5-1.2-0.7-1.7c-0.6-1.3-1.3-2.7-2-4
			c1-0.3,4.4-1.4,5.7-2.6c1.3-1.2,2.7-3,2.6-4.9c-0.1-1.8-1.7-3.3-3.6-3c-2.6,0.5-4.6,4.8-4.9,7.1c0,0.1-0.1,1.9-0.1,2.8
			c-0.4-0.8-0.9-1.6-1.3-2.4c-1.3-2.3-2.7-4.6-4.1-6.8c-0.4-0.7-0.8-1.4-1.3-2.1c0.3-0.1,4.5-1.3,6-2.6c1.3-1.2,2.7-3,2.6-4.9
			c-0.1-1.8-1.7-3.3-3.6-3c-2.6,0.5-4.6,4.8-4.9,7.1c0,0.2-0.1,2.6-0.1,3.3c-0.9-1.5-1.8-3.1-2.7-4.6c-1.2-2.1-2.2-4.3-3-6.5
			c0.2,0,4.5-1.3,6-2.7c1.3-1.2,2.7-3,2.6-4.9c-0.1-1.8-1.7-3.3-3.6-3c-2.6,0.5-4.6,4.8-4.9,7.1c0,0.2-0.1,2.8-0.1,3.3
			c0-0.1-0.1-0.3-0.2-0.4c-0.9-2.3-1.4-4.7-1.8-6.9c-0.2-1.3-0.4-2.6-0.5-3.8c0.8-0.2,4.6-0.9,6.1-2c1.4-1,3-2.7,3.1-4.6
			c0.1-1.8-1.3-3.5-3.2-3.4c-2.6,0.2-5.1,4.2-5.7,6.5c0,0.1-0.2,1.4-0.3,2.4c0-0.6-0.1-1.1-0.1-1.7c-0.1-2-0.1-3.8-0.1-5.5
			c0-0.9,0.1-1.8,0.1-2.5c0.7-0.6,3.6-2.9,4.5-4.5c0.8-1.6,1.4-3.8,0.6-5.5c-0.8-1.7-2.8-2.5-4.4-1.5c-2.3,1.4-2.6,6.1-2,8.4
			c0,0.2,1.1,3.2,1.2,3.2c0,0,0,0,0,0c-0.1,0.8-0.1,1.6-0.1,2.4c-0.1,1.6-0.1,3.5,0,5.5c0.1,2,0.2,4.2,0.6,6.5
			c0.4,2.3,0.8,4.7,1.7,7.1c0,0,0,0.1,0,0.1c-0.5-0.6-1.8-2.3-1.9-2.5c-1.7-1.7-5.8-4-8.2-2.8c-1.7,0.9-2.1,3-1.1,4.5
			C406.8,431.5,409,432.2,410.8,432.4z"/>
		<path class="st0" d="M455.3,417.1c0,0,0.6-3.1,0.7-3.3c0.2-2.4-0.9-7-3.3-8c-1.8-0.7-3.6,0.4-4.1,2.2c-0.5,1.8,0.4,3.9,1.5,5.3
			C451.2,414.8,455.3,417.1,455.3,417.1z"/>
	</g>
</g>
<g id="Earth_Globe">
	<g>
		<g>
			<polygon class="st5" points="152.9,107.5 166.3,110.3 170.8,115 176.8,115.9 178.7,121.5 177.3,125.4 173.2,127.2 163.3,125.6 
				163,124.4 167.7,121.1 164.5,115.1 155.6,113.9 150.9,109.9 			"/>
			<path class="st5" d="M260.6,230.8L250,229l-12.8-1.6l-9.4,2.1l-9.2,0.1l-9.2,4.3l-5.4,1.5l-3.3,0.7l-5.6,5.1l-5.5,3.8l-9.3-3.3
				l0.2-9l-5.6-1l-6.1,1.3l-1.5-2.5l-0.6-5.6l-2.8-2.6l-4.1,1.6l-0.5,3.3l-5.1,1.5l-5.8-4.5l-3.4-6.9l2.7-9.5l8.9-1.3l2.9,1.6
				l3.6-0.8l3.9-3.7l4.2,0.3l7.6,8.2l2.1-0.8l-2.2-6.9l-2.6-3.2l-0.7-5.9l10.2-7.4l-1-11.6l4-5l2.4-7.9l2.9-1.3l6-6.1l-0.2-2.5
				l-4.8,1.4l-1.5-2.2l-3.3,0.7l-4.9,2.4l1.6-4.5l10-5.4l1.8-3.3l5.7,5.7l3.3,2.1l4-2.2l-2.7-3.5l-7.4-3.1l-9.1-6.6l-8.7-3.5
				l-7.6,0.4l-4.5-2.8l-5.1-0.1l-0.3,1.3l1.3,8.9l1.9,2.8l-0.6,10.3l-7.2-3.5l0-4.5l-7.1-1.6l-3.5-2.7l-0.2-7.9l7.4-8.3l-1-7.4
				l-3.3,1l-2.7-2.3l-1.9-4.4L147,111l-0.1,5.1l-3.2,1.3l-3.9-10.3l-2.8-1l-4.7-0.9l-4.3,3.5l7.4,4.4l2.4,4.9l-12.8-5.8l-9.4-6.5
				l-2.4-8.1l-8.4-0.7l-5.2,5.3c0,0-2.6,2.5-4,3.4c-1.4,0.9-7,2.8-7,2.8l-0.1,5.4l-6.9,1.9l1.3,3.2l11.6-0.7l7.2,5.1l2.4,10.6
				l-1.2,10.2l2.8,9.9l-5.2,16.8l3.1,22.6l5.6,12.1l6.1,8.8l4.7-0.4l-2.6-4.5l-3.2-3.1l-3-6.3l2.6-1.2l6.7,10l5.2,9l1.8,7.9l7.3,5.7
				l12,5.3l16.7,0.7l5.9,3.5l4.7,4l6.2,2.1l7.1,0.3l6.6-1.8c0,0,0.4,3.1,0.7,4.6c0.3,1.5-2.8,7.6-2.8,7.6l-2,6.8l3.9,6.1l7.3,1.2
				l11.6,7.6l4.7,0.9l1,4.6l1,2c23.3-9.3,42.8-24.8,57-44.1l-0.3-2.2l4.9-16.7l-4.6-1.9L260.6,230.8z"/>
			<path class="st5" d="M265.6,103.8l-4.6-5l-5.7-5.7l-3.2-8.8l5.7-0.3l-0.4-3.1l-4,0.6l3-2.3l3.2-2.9l-0.7-3l-4.7-4.1l-2.2-6.4
				c-29.8-23.5-69.6-33.9-109.5-25c-18.2,4-34.6,11.7-48.7,22l8.1,3.4l-3,6.4L93.1,72l1.2,8.3l-2.2,1.5l-2.3,4l1.5,5.4l5.3-0.5
				l-1,5.6l5.2-1.1l6.3-13.2l-0.2-5.1l8.4-2.5l1.3-4.1l8.6-2.9l-0.2-5.4l6.3-1.7c0,0,4-3.4,4.9-3.6c0.9-0.2,5.5,0.4,5.5,0.4l5.4,2.6
				l6.4-1.4l4.7-4.6l7.1-0.9c0,0,2.1,0.8,3.6,0.5c1.5-0.3,5.6-3.5,5.6-3.5l10,3.5l4.3,1.9l1,4.6l4.7-0.4l0.9-3.1l4.4,0.9l0.2,2.5
				l-8.6,4.5l6.6,5.5l12.3,3.6l5.9,5.1l6.8-0.9l0.8-3.4l2.3-1.1l-9.2-4.3l-5,0.5l3.7-2.1l-4.8-4.4l5.1-1.5l7.5,2.2l3.1,7l4.2,3.2
				l4.7,8.2l7.8,3.4l2.2,10l8,3l0.4,3.4l0,4.2l3,5.1l1.2,2.6l5.4-0.2l1.3-5.7L265.6,103.8z"/>
			<path class="st5" d="M262.7,72.4l0.4,1.7l-0.4,5.2l1.9,4l3.6,0.5l1.3,5.8l-4-0.7l2.7,16.6L266,113l4.3,8l4.8,2.8l3.6,16.4
				l6.8,11.9l6.4,8.8l7.4,0.3l1.1-6.6l0.8-1c-0.5-5.4-1.4-10.7-2.5-16.1C292.9,111.7,280.1,89.5,262.7,72.4z"/>
			<polygon class="st5" points="192.1,86 170.1,81.7 161.4,84 160.5,90.2 156,87.1 149.7,90.1 151.3,100.2 157.6,103 160.3,96.3 
				165.9,99.8 177.1,106 180.9,114.4 191,122.6 203.3,117.7 202,113.2 198.1,108.6 194.8,96.6 196.7,90.8 			"/>
			<polygon class="st5" points="210,89.1 205.2,88.9 202,93.1 206.1,101.4 210,100.6 			"/>
			<polygon class="st5" points="239.5,88.6 228,85.4 225.1,82.2 222.8,83.7 226.3,89.3 229.9,96.8 234.8,97.6 235.5,96.2 
				231.7,92.2 240.3,93.5 			"/>
			<polygon class="st5" points="175.2,217.9 174.3,219.4 184,220.1 188.6,223.6 194.5,222.9 195.9,219.1 188.6,219.4 			"/>
			<polygon class="st5" points="203.5,217.7 197.5,220.9 199,223.2 206.9,221.4 207.9,218.6 205.2,219.5 			"/>
		</g>
		<g>
			<circle class="st6" cx="170.7" cy="165.6" r="131"/>
			<ellipse class="st6" cx="170.7" cy="165.6" rx="82.1" ry="131"/>
			<ellipse class="st6" cx="170.7" cy="165.6" rx="29.9" ry="131"/>
			<line class="st6" x1="98.8" y1="56.9" x2="243.2" y2="56.9"/>
			<line class="st6" x1="50.4" y1="114" x2="290.6" y2="114"/>
			<line class="st6" x1="98.8" y1="274.1" x2="243.2" y2="274.1"/>
			<line class="st6" x1="50.4" y1="217" x2="290.6" y2="217"/>
			<line class="st6" x1="301.7" y1="165.6" x2="39.7" y2="165.6"/>
		</g>
		<g>
			<rect x="145.3" y="145.5" class="st7" width="48.4" height="41.5"/>
			<polygon class="st8" points="181.9,163.7 181.9,158.1 178,158.1 178,152.4 161.3,152.4 161.3,158.1 157.4,158.1 157.4,163.7 
				151.5,163.7 151.5,180.4 157.4,180.4 161.3,180.4 178,180.4 181.9,180.4 187.9,180.4 187.9,163.7 			"/>
		</g>
	</g>
</g>
<g id="Character">
	<g>
		<g>
			<polyline class="st5" points="332.9,472 332.9,362.1 425.7,366 425.7,471.9 			"/>
			<polyline class="st6" points="367.2,398.8 378.2,404.2 378.2,472.7 			"/>
		</g>
		<polygon class="st7" points="307.8,308.7 305.4,320.7 334,335 334.9,313.8 		"/>
		<g>
			<g>
				<path class="st7" d="M359.3,226.1c0,0-32.4,10.8-34.5,11.6c-2.1,0.8-4.4,3.3-4.2,5.4c0.2,2.1-12.9,63.9-12.9,65.6
					c0,1.7,23.3,8.3,23.3,8.3s0.8,48,1,49.2c0.2,1.2,1.6,6,25.9,6.4c20.1,0.4,49,1.2,55.6,0.8c12-0.7,12.5-4.8,13.1-6
					c0.6-1.2,0-56.9,0-56.9l42.1,20c0,0,0.4-0.4,0.2-5.6c-0.2-5.2-15.1-44-21.7-61.3s-10-22-18.1-28c-8.1-6-27.6-14.1-27.6-14.1
					s-16,3.3-27.4,3.5C362.8,225.2,359.3,226.1,359.3,226.1z"/>
				<line class="st6" x1="332.3" y1="268.2" x2="332.4" y2="264.8"/>
				<line class="st6" x1="331" y1="317" x2="332.2" y2="271.6"/>
			</g>
			<path class="st7" d="M459.1,295.5c-18.6-1-27.5,11.6-29.9,15.9l39.6,19.1c0,0,0.4-0.4,0.2-5.6C468.9,322.3,463,306.6,459.1,295.5
				z"/>
		</g>
		<g>
			<path class="st7" d="M375.9,234c0,0,6.4,20.1,8.9,21c2.5,0.8,2.1-5.4,2.1-5.4s16.8-26.2,16.2-28.9c-0.6-2.7-1.7-5-4.8-7.3
				c-3.1-2.3-4.6-2.9-5.6-2.7c-1,0.2-17.4,20.6-17.4,20.6L375.9,234z"/>
			<path class="st7" d="M349.7,226.9c0,0-1.2,14.9-1.7,17.2c-0.4,2.3-2.3,5.8-0.8,6.4c1.5,0.6,8.1-4.8,9.5-7.1
				c1.5-2.3,1-3.1,1.5-5.2C358.6,236.2,352.6,225.7,349.7,226.9z"/>
			<path class="st7" d="M359.3,217.6c0,0-10.2,7.7-9.5,9.3c0.6,1.7,15.4,25.9,15.4,25.9s-0.8-22-1.5-28.6
				C363,217.6,359.3,217.6,359.3,217.6z"/>
			<g>
				<path class="st7" d="M356.2,208.6l8.9,44.2c0,0,3.9-7.5,4.6-8.1s8.7-14.9,8.7-14.9s15.6-11,15.6-12.2c0-1.2,0.8-14.1,0.8-14.1
					s-13.5,8.9-17.6,10C373,214.5,356.2,208.6,356.2,208.6z"/>
				<path class="st8" d="M356.2,208.6l3.8,18.6l17.7-9.8l-0.5-4.1C373,214.5,356.2,208.6,356.2,208.6z"/>
			</g>
			<g>
				<path class="st7" d="M348.1,171.3c0,0-2.5-3.7-3.9,1.5c-1.5,5.2,5.2,13.9,5.2,13.9l0.8-15.2L348.1,171.3z"/>
				<path class="st7" d="M349.5,155.7c0,0,0,37.8,0.6,41.3s9.5,21.6,13.7,22.8c4.2,1.2,10.8,1,12.9,0.4c2.1-0.6,16.4-12,18.1-16.8
					s3.1-11.4,3.1-11.4s6.2-3.3,7.7-8.1c1.5-4.8,0.8-9.1-0.6-10.8c-1.5-1.7-2.5-1.9-2.5-1.9l-2.3-3.3c0,0,0.6-5.4,0.6-6.6
					c0-1.2-1.2-8.3-9.3-11.6c-8.1-3.3-31.6-2.5-36.5-1.5C349.9,149.3,349.5,155.7,349.5,155.7z"/>
				<path class="st3" d="M363.6,176.3c0,1.7-0.8,3.1-1.9,3.1c-1,0-1.9-1.4-1.9-3.1s0.8-3.1,1.9-3.1
					C362.8,173.1,363.6,174.5,363.6,176.3z"/>
				<path class="st3" d="M384.8,178.1c0,1.7-0.8,3.1-1.9,3.1c-1,0-1.9-1.4-1.9-3.1c0-1.7,0.8-3.1,1.9-3.1
					C384,175,384.8,176.4,384.8,178.1z"/>
				<path class="st6" d="M356.6,168.6c0,0,4.2-4.2,8.9-0.2"/>
				<path class="st6" d="M378.6,169c0,0,4.8-3.1,9.3,2.1"/>
				<polyline class="st6" points="368.8,173.1 367.2,195.4 376.5,195.8 				"/>
				<line class="st6" x1="368.2" y1="204.9" x2="372.3" y2="205.3"/>
			</g>
			<path class="st8" d="M346.2,152.6c0,0-2.5,7.9-1.5,10c1,2.1,2.9,6.9,2.9,6.9s0.6,6,1.2,7.3l0.6-21
				C349.5,155.7,348.9,150.3,346.2,152.6z"/>
			<path class="st8" d="M357,134.9c0,0-18.9,7.7-18.1,12.7c0.8,5,7.3,5,7.3,5s-5,5.4,5.2,7.3c10.2,1.9,29.3-6.9,29.3-6.9
				s-2.7,6,0,6.6c2.7,0.6,8.7-0.2,8.7-0.2s0.2,6,2.5,7.5c2.3,1.5,5.6,1.7,5.6,1.7s-1.2,11.6-0.2,12.2c1,0.6,1.2-0.4,1.5-1
				c0.2-0.6,1.7-7.5,1.7-7.5l2.1-1l0.6-5.4c0,0,5.4-8.5,3.7-13.5c-1.7-5-7.1-10.6-7.1-10.6s-7.5-10.2-21.6-11.6
				C364,128.7,357,134.9,357,134.9z"/>
		</g>
		<path class="st7" d="M305.3,302.5c0,0,0.7,2.2-0.1,10.7c-0.8,8.5-0.9,18.6,2.9,24.2c3.8,5.6,14.5,8.5,18.2,6.9
			c3.7-1.6,4.7-4.3,4.8-11.1c0.1-6.8-9.2-32.6-9.2-32.6l-16.4-2.1L305.3,302.5z"/>
		<path class="st7" d="M305.5,287.3c0,0-4.7-2-7-4.7c-2.3-2.7-5.2-7-6-7.2c-0.8-0.3-4.6,2.4-3.3,5.9c1.4,3.5,6.6,7.7,6.6,7.7
			s2.9,4.5,3.4,5.7s1.9,5.5,3.4,7.1c4,4.4,6.8,5.5,12.8,5.6c6,0.1,6.9-2.3,7.6-4.8c0.7-2.5,1-6.9,0.6-7c-0.4-0.1-16.4-3.4-17.1-5.1
			C305.6,289,305.5,287.3,305.5,287.3z"/>
		<g>
			<path class="st9" d="M267.2,360.6v-29.8c0-22,17.8-39.8,39.8-39.8h0c22,0,39.8,17.8,39.8,39.8v83.1c0,17.2,13.9,31.1,31.1,31.1
				l0,0c17.2,0,31.1-13.9,31.1-31.1V220.5"/>
			<g>
				<g>
					<rect x="257.6" y="354.3" class="st5" width="19.8" height="21.2"/>
					<rect x="273.9" y="354.3" class="st5" width="3.5" height="21.2"/>
					<line class="st6" x1="258.3" y1="359.7" x2="277.2" y2="359.7"/>
					<line class="st6" x1="258.3" y1="363.7" x2="277.2" y2="363.7"/>
					<line class="st6" x1="258.3" y1="367.6" x2="277.2" y2="367.6"/>
					<line class="st6" x1="258.3" y1="371.6" x2="277.2" y2="371.6"/>
				</g>
				<g>
					<rect x="266.1" y="379.4" class="st8" width="11.5" height="41.8"/>
					<g>
						<rect x="254.2" y="416" class="st7" width="21.7" height="24.9"/>
						<g>
							<rect x="257.7" y="425.1" class="st10" width="1.8" height="15.8"/>
							<rect x="261.3" y="425.1" class="st10" width="1.8" height="15.8"/>
							<rect x="264.8" y="425.1" class="st10" width="1.8" height="15.8"/>
						</g>
						<rect x="270.8" y="416" class="st7" width="5.1" height="24.9"/>
					</g>
					<polygon class="st5" points="265.3,421.7 268.6,421.7 271.5,381.5 275.7,381.5 275.7,440.8 281.4,440.8 281.4,373.7 267,373.7 
											"/>
					<polygon class="st8" points="265.3,421.7 252.1,421.7 250.5,373.7 267,373.7 					"/>
				</g>
			</g>
		</g>
		<g>
			<path class="st7" d="M320.2,289.6c0,0,3.5-0.7,4.2,1.2c0.6,1.9,0.1,6.8-0.6,8.8c-0.6,2-2.4,2.6-3.3,2.5c-0.9-0.1-2.2-1.2-2.2-1.2
				s1.3-3.4,1.3-6.7C319.7,290.9,320.2,289.6,320.2,289.6z"/>
			<path class="st7" d="M314.9,289.2c0,0,2.8-0.3,4.3,0.6c1.5,0.9,0.7,5.5,0.4,8.5c-0.3,3-1.8,4.3-3.4,4.2c-1.6-0.1-3.9-1.4-3.9-2.2
				s-0.1-1.2-0.1-1.2s0.6-0.5,1.1-3.3C313.8,293,314.9,289.2,314.9,289.2z"/>
			<path class="st7" d="M309,289.9c0,0,2.3-1.1,4.2-0.2c1.9,0.8,1.2,2.2,0.8,6.8c-0.4,4.6-2,6.2-3.9,5.8c-1.3-0.3-3.3-0.8-3.5-2.6
				C306.5,297.9,309,289.9,309,289.9z"/>
			<path class="st7" d="M307.3,294c0,0,0.7-2.5,0-4.5c-0.7-1.9-4.6-2.2-5.2-0.7c-0.6,1.5-1.5,9-0.9,9.8c0.6,0.9,3.2,1.7,4.2,0.9
				C306.4,298.7,307.3,294,307.3,294z"/>
		</g>
		<path class="st7" d="M431,289.8c0,0-8.4-7.7-12.8-13.9c-4.4-6.3-10-8.5-14.9-10c-5-1.6-8.7,0.8-8.5,3.5c0.2,2.7,2.9,4.5,2.9,4.5
			s-2.6,12.9-1.6,15.5c1,2.5,0.2,4.5,1.7,6.8c1.5,2.3,4.5,3.9,13.7,5.2c9.2,1.3,10.3,1.4,10.3,1.4s23.4,38.6,28.8,43.2
			c5.4,4.6,16,5,19.7,1.2c3.8-3.8,3.9-18.1,1.9-20.9C470.2,323.5,431,289.8,431,289.8z"/>
	</g>
</g>
<g id="Line">
	<line class="st6" x1="474.5" y1="472.4" x2="25.6" y2="472.4"/>
</g>
</svg>
